<?xml version="1.0" standalone="no"?>
<!DOCTYPE svg PUBLIC "-//W3C//DTD SVG 20010904//EN"
 "http://www.w3.org/TR/2001/REC-SVG-20010904/DTD/svg10.dtd">
<svg version="1.0" xmlns="http://www.w3.org/2000/svg"
 width="600.000000pt" height="620.000000pt" viewBox="0 0 600.000000 620.000000"
 preserveAspectRatio="xMidYMid meet">

<g transform="translate(0.000000,620.000000) scale(0.100000,-0.100000)"
fill="#000000" stroke="none">
<path d="M2927 5200 c-128 -22 -253 -117 -308 -235 -145 -310 104 -649 444
-603 132 18 262 113 319 234 120 257 -31 551 -311 604 -60 11 -75 11 -144 0z"/>
<path d="M2675 4280 c-269 -55 -410 -172 -460 -382 -10 -44 -15 -119 -15 -247
l0 -183 -60 -65 c-33 -35 -68 -76 -77 -91 -10 -15 -26 -35 -35 -46 -17 -18
-62 -107 -111 -216 -13 -30 -35 -98 -48 -150 -21 -84 -24 -117 -23 -285 0
-173 2 -199 27 -288 176 -652 860 -1021 1498 -807 368 123 657 432 756 807 31
121 43 350 23 471 -37 232 -143 450 -297 613 l-53 56 0 184 c0 128 -5 203 -15
247 -51 217 -200 335 -487 387 l-97 17 -85 -52 c-47 -28 -86 -54 -86 -58 0 -4
9 -88 20 -187 27 -246 33 -220 -50 -220 -83 0 -77 -26 -50 220 11 99 20 183
20 187 0 12 -167 108 -186 107 -11 0 -59 -9 -109 -19z m555 -721 c463 -116
787 -575 730 -1034 -53 -435 -349 -760 -773 -850 -87 -19 -292 -19 -377 -1
-365 78 -653 353 -746 711 -32 123 -37 314 -10 433 53 239 190 447 393 595
104 76 302 153 443 171 75 9 257 -4 340 -25z"/>
<path d="M2468 3060 c-32 -4 -71 -13 -87 -20 -41 -16 -79 -75 -91 -139 -13
-68 -13 -507 0 -585 19 -118 81 -169 205 -170 93 -1 148 28 183 96 21 40 25
63 26 145 l1 98 -65 0 -65 0 -5 -93 c-4 -78 -8 -96 -24 -108 -42 -30 -98 -12
-115 37 -16 45 -14 523 2 569 16 47 65 63 105 33 25 -18 27 -27 30 -97 l3 -76
71 0 71 0 -6 86 c-8 108 -36 169 -93 200 -51 28 -77 32 -146 24z"/>
<path d="M2949 3060 c-101 -18 -148 -87 -152 -223 l-2 -82 68 -3 67 -3 0 75
c0 69 2 76 26 95 52 41 99 21 115 -48 21 -95 -20 -191 -141 -326 -39 -44 -85
-108 -102 -142 -27 -55 -30 -73 -32 -155 l-1 -93 203 -3 202 -2 0 65 0 65
-135 0 c-122 0 -135 2 -135 18 1 36 40 102 107 178 87 100 131 164 156 228 21
55 27 156 14 219 -9 42 -56 101 -99 123 -32 17 -106 23 -159 14z"/>
<path d="M3425 3054 c-58 -19 -85 -43 -108 -92 -21 -45 -22 -59 -22 -357 0
-307 0 -311 24 -358 40 -81 122 -117 228 -99 120 20 161 79 170 242 l6 100
-72 0 -71 0 0 -90 c0 -102 -15 -130 -70 -130 -32 0 -70 30 -70 55 0 8 0 132 0
275 0 143 0 269 0 280 0 27 35 60 64 60 13 0 35 -9 50 -21 24 -19 26 -26 26
-95 l0 -75 68 3 67 3 -2 84 c-3 149 -59 214 -191 223 -34 2 -78 -1 -97 -8z"/>
<path d="M2842 1301 c-58 -10 -74 -27 -36 -38 46 -13 392 -9 406 5 22 22 -43
36 -187 38 -77 1 -159 -1 -183 -5z"/>
<path d="M2332 100 c0 -40 2 -47 7 -26 9 42 29 44 34 4 l5 -33 -2 35 c-1 24
-6 35 -16 35 -8 0 -18 9 -22 20 -3 11 -6 -4 -6 -35z"/>
<path d="M2933 100 c0 -30 1 -47 4 -37 5 18 5 18 25 0 21 -18 21 -18 9 5 -10
19 -10 27 1 40 10 13 8 13 -9 -1 -21 -19 -22 -19 -26 15 -2 20 -4 11 -4 -22z"/>
<path d="M3367 143 c-4 -3 -7 -11 -7 -17 0 -6 5 -5 12 2 16 16 28 15 28 -3 0
-8 -5 -15 -12 -15 -6 0 -4 -6 7 -13 10 -8 15 -19 11 -25 -10 -16 -33 -15 -39
1 -4 9 -6 9 -6 -1 -1 -18 27 -26 43 -13 14 12 15 58 2 79 -8 13 -29 16 -39 5z"/>
<path d="M3462 143 l28 -4 -20 -39 c-28 -56 -24 -64 5 -10 31 58 31 60 -7 59
-31 -2 -31 -2 -6 -6z"/>
<path d="M3530 141 c0 -5 -3 -16 -6 -25 -4 -12 0 -16 15 -16 26 0 29 -36 4
-43 -15 -4 -15 -5 -2 -6 26 -2 44 26 29 44 -7 8 -19 15 -26 15 -18 0 -6 28 14
33 12 3 10 5 -5 6 -13 0 -23 -3 -23 -8z"/>
<path d="M3607 143 c-12 -21 -6 -84 9 -90 26 -10 44 18 35 57 -6 32 -33 52
-44 33z m33 -18 c0 -8 -4 -15 -9 -15 -13 0 -22 16 -14 24 11 11 23 6 23 -9z
m5 -45 c0 -8 -8 -16 -17 -18 -13 -2 -18 3 -18 18 0 15 5 20 18 18 9 -2 17 -10
17 -18z"/>
<path d="M3689 133 c-12 -15 -12 -16 4 -10 14 5 17 1 17 -27 0 -19 -6 -37 -12
-39 -7 -3 1 -5 17 -5 17 0 24 2 18 5 -8 3 -13 23 -13 49 0 47 -9 55 -31 27z"/>
<path d="M3767 143 c-12 -21 -6 -84 9 -90 26 -10 44 18 35 57 -6 32 -33 52
-44 33z m33 -19 c0 -9 -5 -14 -12 -12 -18 6 -21 28 -4 28 9 0 16 -7 16 -16z
m5 -44 c0 -8 -8 -16 -17 -18 -13 -2 -18 3 -18 18 0 15 5 20 18 18 9 -2 17 -10
17 -18z"/>
<path d="M3849 133 c-12 -15 -12 -16 4 -10 14 5 17 1 17 -27 0 -19 -6 -37 -12
-39 -7 -3 1 -5 17 -5 17 0 24 2 18 5 -8 3 -13 23 -13 49 0 47 -9 55 -31 27z"/>
<path d="M3927 143 c-12 -21 -6 -84 9 -90 26 -10 44 18 35 57 -6 32 -33 52
-44 33z m33 -19 c0 -9 -5 -14 -12 -12 -18 6 -21 28 -4 28 9 0 16 -7 16 -16z
m5 -44 c0 -8 -8 -16 -17 -18 -13 -2 -18 3 -18 18 0 15 5 20 18 18 9 -2 17 -10
17 -18z"/>
<path d="M4007 143 c-4 -3 -7 -11 -7 -17 0 -6 5 -5 12 2 17 17 28 15 28 -6 0
-11 -9 -27 -20 -37 -28 -26 -25 -35 13 -34 29 1 30 2 7 8 -18 5 -21 9 -12 15
20 12 31 49 20 64 -11 13 -31 16 -41 5z"/>
<path d="M1943 85 c12 -40 22 -44 31 -12 l7 22 11 -25 10 -25 16 35 15 35 10
-32 c12 -39 22 -42 31 -11 l7 23 11 -25 10 -25 16 35 15 35 10 -32 c12 -39 22
-42 31 -10 l7 22 11 -25 10 -25 15 34 c8 18 12 36 9 38 -3 3 -8 -8 -12 -23
l-7 -29 -13 30 c-13 29 -14 29 -20 8 -8 -29 -24 -30 -24 -2 0 29 -33 21 -40
-11 l-6 -25 -11 30 c-11 29 -12 29 -18 8 -9 -28 -25 -30 -25 -3 0 30 -29 24
-37 -7 l-6 -28 -13 30 c-13 29 -14 29 -20 8 -8 -28 -24 -30 -24 -3 0 11 -4 20
-9 20 -5 0 -4 -15 2 -35z"/>
<path d="M2274 108 c-4 -6 0 -16 9 -23 22 -16 21 -22 0 -28 -16 -4 -16 -5 -1
-6 26 -2 33 20 12 36 -16 12 -17 15 -4 23 9 6 10 10 3 10 -6 0 -15 -5 -19 -12z"/>
<path d="M2404 91 c0 -21 7 -36 16 -38 10 -3 11 -2 3 4 -6 4 -13 22 -16 38 -4
27 -5 27 -3 -4z"/>
<path d="M2443 85 c0 -22 2 -30 4 -17 2 12 2 30 0 40 -3 9 -5 -1 -4 -23z"/>
<path d="M2469 88 c4 -17 13 -34 21 -36 12 -4 13 -2 3 9 -7 7 -13 21 -13 30 0
10 6 20 13 22 6 3 2 6 -9 6 -19 1 -21 -3 -15 -31z"/>
<path d="M2519 88 c4 -17 13 -34 21 -36 12 -4 13 -2 3 9 -7 7 -13 21 -13 30 0
10 6 20 13 22 6 3 2 6 -9 6 -19 1 -21 -3 -15 -31z"/>
<path d="M2574 106 c-11 -28 0 -51 26 -53 22 -1 22 -1 3 4 -29 6 -30 23 -2 23
14 0 19 5 17 17 -4 23 -36 29 -44 9z m36 -6 c0 -5 -7 -10 -15 -10 -8 0 -15 5
-15 10 0 6 7 10 15 10 8 0 15 -4 15 -10z"/>
<path d="M2641 81 c1 -28 3 -30 6 -11 3 14 9 30 14 36 5 7 3 11 -6 11 -11 0
-15 -11 -14 -36z"/>
<path d="M2694 108 c-4 -6 0 -16 9 -23 22 -16 21 -22 0 -28 -16 -4 -16 -5 -1
-6 26 -2 33 20 12 36 -16 12 -17 15 -4 23 9 6 10 10 3 10 -6 0 -15 -5 -19 -12z"/>
<path d="M2749 88 c4 -17 13 -34 21 -36 12 -4 13 -2 3 9 -7 7 -13 21 -13 30 0
10 6 20 13 22 6 3 2 6 -9 6 -19 1 -21 -3 -15 -31z"/>
<path d="M2807 114 c-13 -13 -7 -55 9 -61 24 -9 51 23 38 45 -12 19 -36 27
-47 16z m36 -16 c6 -19 -3 -38 -19 -38 -8 0 -14 10 -14 25 0 26 25 35 33 13z"/>
<path d="M2874 106 c-9 -23 0 -51 16 -52 9 0 10 1 3 3 -20 7 -16 51 5 56 16 4
16 5 -1 6 -10 0 -20 -5 -23 -13z"/>
<path d="M3034 106 c-9 -23 0 -51 16 -52 9 0 10 1 3 3 -20 7 -16 51 5 56 16 4
16 5 -1 6 -10 0 -20 -5 -23 -13z"/>
<path d="M3097 114 c-13 -13 -7 -55 9 -61 24 -9 51 23 38 45 -12 19 -36 27
-47 16z m38 -29 c0 -11 -8 -21 -17 -23 -14 -3 -18 3 -18 23 0 20 4 26 18 23 9
-2 17 -12 17 -23z"/>
<path d="M3163 85 c0 -22 2 -30 4 -17 2 12 2 30 0 40 -3 9 -5 -1 -4 -23z"/>
<path d="M3187 112 c6 -4 13 -21 16 -37 l4 -30 2 33 c1 41 23 39 33 -4 6 -27
6 -27 5 6 -2 32 -4 35 -36 37 -19 1 -30 -2 -24 -5z"/>
</g>
</svg>
