<?xml version="1.0" standalone="no"?>
<!DOCTYPE svg PUBLIC "-//W3C//DTD SVG 20010904//EN"
 "http://www.w3.org/TR/2001/REC-SVG-20010904/DTD/svg10.dtd">
<svg version="1.0" xmlns="http://www.w3.org/2000/svg"
 width="900.000000pt" height="600.000000pt" viewBox="0 0 900.000000 600.000000"
 preserveAspectRatio="xMidYMid meet">

<g transform="translate(0.000000,600.000000) scale(0.100000,-0.100000)"
fill="#000000" stroke="none">
<path d="M7086 5935 l-70 -35 41 0 c73 0 172 -49 263 -131 l35 -31 -35 7 c-58
13 -139 13 -148 1 -11 -15 -34 -108 -28 -114 3 -2 8 7 12 22 3 14 8 26 9 26 2
0 17 -13 33 -30 23 -22 40 -30 67 -30 22 0 34 -4 30 -10 -3 -6 1 -13 9 -16 18
-7 21 -41 6 -80 -14 -35 -4 -44 16 -16 17 24 34 29 34 10 0 -7 -12 -29 -26
-50 -27 -39 -27 -55 1 -45 8 4 15 18 15 31 0 16 10 33 29 47 30 22 44 48 56
103 l6 30 29 -52 c52 -95 75 -179 75 -272 0 -73 -4 -91 -24 -124 -13 -21 -20
-37 -15 -35 38 16 114 66 119 79 3 8 15 31 25 50 40 70 20 220 -45 349 -94
187 -259 329 -400 346 -44 5 -58 2 -119 -30z"/>
<path d="M5340 5836 c-14 -8 -28 -12 -32 -10 -5 3 -8 0 -8 -5 0 -6 -10 -11
-23 -11 -47 0 -134 -33 -234 -88 -56 -31 -99 -60 -96 -66 3 -5 1 -6 -4 -3 -14
9 -165 -77 -155 -88 4 -5 2 -5 -5 -1 -7 4 -21 -2 -33 -14 -11 -11 -23 -20 -27
-20 -21 0 -43 -12 -38 -21 3 -5 0 -6 -7 -4 -8 3 -24 -4 -36 -15 -12 -11 -24
-20 -27 -19 -13 3 -74 -35 -69 -43 3 -4 -1 -5 -9 -3 -7 3 -22 -3 -32 -15 -10
-11 -24 -20 -30 -20 -18 0 -105 -50 -105 -61 0 -5 -3 -8 -7 -7 -15 4 -83 -34
-77 -43 3 -5 -1 -6 -8 -4 -8 3 -23 -2 -34 -12 -11 -10 -26 -19 -34 -21 -8 -2
-19 -8 -25 -14 -7 -8 -6 -8 4 -3 9 5 12 4 7 -3 -3 -6 -14 -10 -24 -10 -24 2
-222 -114 -215 -125 3 -6 1 -7 -5 -3 -16 10 -54 -12 -46 -26 4 -7 3 -8 -4 -4
-6 4 -36 -8 -67 -25 -42 -24 -53 -34 -43 -41 9 -7 8 -8 -5 -4 -20 7 -147 -59
-147 -75 0 -6 -3 -8 -7 -6 -12 7 -418 -229 -416 -241 2 -6 -4 -9 -12 -6 -8 3
-28 -4 -44 -15 l-30 -22 0 -332 c-1 -183 -4 -505 -7 -717 l-7 -385 41 -65 c23
-36 50 -77 60 -92 l18 -27 529 299 c292 165 533 300 538 300 12 0 7 -160 -8
-243 -7 -43 -27 -107 -43 -142 l-30 -64 -76 41 -76 41 31 31 c34 32 92 117 85
123 -6 6 -446 -216 -446 -225 0 -4 87 -51 193 -105 l192 -99 323 182 c208 117
320 186 314 192 -6 6 -70 43 -143 83 l-134 73 1 108 2 109 338 192 c187 106
390 221 452 255 l112 62 0 661 c0 363 3 731 7 818 6 150 5 157 -13 157 -10 -1
-30 -7 -44 -14z m-100 -60 c0 -2 -7 -7 -16 -10 -8 -3 -12 -2 -9 4 6 10 25 14
25 6z m-85 -35 c3 -5 2 -12 -3 -15 -5 -3 -9 1 -9 9 0 17 3 19 12 6z m-25 -23
c0 -4 -4 -8 -9 -8 -6 0 -12 4 -15 8 -3 5 1 9 9 9 8 0 15 -4 15 -9z m-35 -18
c-3 -5 -12 -10 -18 -10 -7 0 -6 4 3 10 19 12 23 12 15 0z m165 -762 l0 -713
-108 -59 c-59 -32 -480 -268 -935 -524 -455 -255 -830 -463 -832 -460 -2 2 -1
321 3 708 l7 705 370 211 c204 116 620 353 925 527 305 174 558 317 563 317 4
0 7 -321 7 -712z m-310 677 c0 -2 -13 -11 -30 -20 -38 -19 -40 -11 -2 9 31 17
32 18 32 11z m-75 -43 c-6 -5 -37 -24 -70 -41 -33 -18 -52 -26 -43 -18 10 8
14 18 10 22 -4 5 -2 5 5 2 6 -4 31 4 55 18 45 26 59 31 43 17z m-175 -97 c-7
-8 -17 -15 -23 -15 -6 0 -2 7 9 15 25 19 30 19 14 0z m-41 -29 c-2 -2 -15 -9
-29 -15 -24 -11 -24 -11 -6 3 16 13 49 24 35 12z m-109 -60 c0 -2 -7 -7 -16
-10 -8 -3 -12 -2 -9 4 6 10 25 14 25 6z m-40 -21 c0 -2 -10 -9 -22 -15 -22
-11 -22 -10 -4 4 21 17 26 19 26 11z m-80 -49 c0 -2 -7 -7 -16 -10 -8 -3 -12
-2 -9 4 6 10 25 14 25 6z m-70 -40 c0 -2 -7 -7 -16 -10 -8 -3 -12 -2 -9 4 6
10 25 14 25 6z m-60 -31 c0 -2 -10 -9 -22 -15 -22 -11 -22 -10 -4 4 21 17 26
19 26 11z m-75 -45 c-3 -5 -12 -10 -18 -10 -7 0 -6 4 3 10 19 12 23 12 15 0z
m-55 -30 c-35 -24 -54 -31 -30 -11 14 11 30 21 35 21 6 0 3 -5 -5 -10z m-60
-4 c0 -2 -7 -7 -16 -10 -8 -3 -12 -2 -9 4 6 10 25 14 25 6z m-40 -51 c0 -2
-10 -10 -22 -16 -21 -11 -22 -11 -9 4 13 16 31 23 31 12z m-80 -49 c0 -2 -7
-7 -16 -10 -8 -3 -12 -2 -9 4 6 10 25 14 25 6z m-160 -86 c0 -9 -51 -40 -65
-40 -3 0 0 6 7 14 7 8 15 14 18 14 24 -1 31 4 26 18 -3 8 -2 12 4 9 6 -3 10
-10 10 -15z m40 16 c0 -2 -7 -7 -16 -10 -8 -3 -12 -2 -9 4 6 10 25 14 25 6z
m-130 -71 c0 -2 -10 -9 -22 -15 -22 -11 -22 -10 -4 4 21 17 26 19 26 11z m-70
-40 c0 -2 -10 -9 -22 -15 -22 -11 -22 -10 -4 4 21 17 26 19 26 11z m-90 -50
c0 -2 -10 -9 -22 -15 -22 -11 -22 -10 -4 4 21 17 26 19 26 11z m-160 -89 c0
-2 -17 -14 -37 -26 -20 -12 -31 -15 -25 -7 7 7 8 18 4 22 -4 5 -1 5 5 1 7 -4
21 -2 30 3 20 12 23 13 23 7z m-105 -55 c3 -6 -5 -15 -17 -21 -21 -10 -21 -10
-6 3 10 8 15 17 11 20 -3 4 -4 7 0 7 3 0 8 -4 12 -9z m-59 -46 c-11 -8 -25
-15 -30 -15 -6 1 0 7 14 15 32 19 40 18 16 0z m-29 -1022 c-1 -159 -2 -29 -2
287 0 316 1 446 2 288 2 -159 2 -417 0 -575z m0 -405 c-2 -13 -4 -3 -4 22 0
25 2 35 4 23 2 -13 2 -33 0 -45z"/>
<path d="M4945 5215 c0 -30 4 -55 9 -55 5 0 25 10 44 22 l35 22 -39 33 c-21
18 -41 33 -44 33 -3 0 -5 -25 -5 -55z"/>
<path d="M4807 5043 c-76 -41 -136 -78 -133 -80 5 -5 262 131 281 148 24 23
-20 3 -148 -68z"/>
<path d="M4802 4962 c-79 -42 -139 -78 -134 -80 9 -3 292 147 292 154 0 10
-24 -1 -158 -74z"/>
<path d="M4807 4888 c-81 -44 -146 -83 -143 -85 3 -3 70 29 148 72 153 83 153
83 147 89 -2 2 -71 -32 -152 -76z"/>
<path d="M4940 4881 c-122 -64 -280 -154 -277 -158 4 -3 278 139 296 154 10 8
-5 11 -19 4z"/>
<path d="M3865 4655 c-82 -52 -153 -95 -157 -95 -4 0 -8 15 -8 33 0 28 8 37
68 76 37 24 62 46 55 48 -6 2 -43 -16 -82 -42 l-71 -45 2 -236 c3 -207 5 -238
19 -247 23 -14 377 186 384 217 3 12 1 102 -3 201 l-7 180 -25 2 c-17 2 -74
-28 -175 -92z"/>
<path d="M4894 4585 c-16 -16 -24 -35 -24 -58 0 -40 24 -68 34 -41 4 11 13 14
30 10 27 -7 36 7 36 52 0 55 -39 74 -76 37z m51 -25 c3 -6 -4 -14 -17 -19 -29
-11 -35 -6 -18 14 14 17 26 19 35 5z"/>
<path d="M4916 4417 c-18 -13 -40 -102 -29 -119 8 -14 60 -8 73 7 15 19 7 92
-12 111 -12 12 -17 12 -32 1z m29 -67 c-1 -31 -5 -46 -15 -48 -11 -2 -16 10
-18 49 -3 44 -1 50 15 47 14 -3 18 -13 18 -48z"/>
<path d="M4900 4228 c-22 -37 -25 -69 -9 -99 8 -16 13 -18 24 -9 7 6 26 13 42
14 23 3 30 10 37 39 13 52 -4 87 -44 87 -23 0 -35 -7 -50 -32z m60 -59 c-15
-36 -27 -37 -42 -3 -11 23 -9 28 12 44 22 16 26 17 33 4 5 -9 4 -27 -3 -45z"/>
<path d="M3823 4065 c-30 -21 -46 -75 -34 -109 10 -26 31 -36 31 -15 0 6 7 9
14 6 11 -4 13 -1 9 10 -5 13 -3 14 15 4 18 -9 23 -8 32 8 16 30 12 76 -8 94
-23 21 -32 21 -59 2z m39 -57 c-7 -7 -12 -8 -12 -4 0 5 -7 3 -15 -4 -12 -10
-15 -10 -15 4 0 9 7 16 15 16 8 0 15 5 15 12 0 9 3 9 12 0 9 -9 9 -15 0 -24z"/>
<path d="M3826 3871 c-9 -10 -19 -41 -23 -70 l-6 -51 31 0 c35 0 65 25 58 49
-2 9 -7 30 -11 48 -8 38 -28 48 -49 24z m33 -25 c9 -11 9 -20 2 -35 -6 -11 -8
-27 -5 -35 4 -11 0 -16 -11 -16 -11 0 -15 5 -12 15 4 8 2 17 -3 20 -11 7 -13
48 -3 58 10 11 19 8 32 -7z"/>
<path d="M3832 3703 c-22 -9 -44 -63 -37 -94 7 -31 32 -39 41 -14 5 11 11 12
25 5 16 -9 20 -6 26 17 10 41 6 66 -13 80 -19 14 -22 14 -42 6z m38 -43 c0 -9
-31 -30 -44 -30 -12 0 -6 28 7 33 20 9 37 8 37 -3z"/>
<path d="M7137 5613 c-4 -3 -7 -11 -7 -17 0 -6 5 -5 12 2 6 6 9 14 7 17 -3 3
-9 2 -12 -2z"/>
<path d="M8589 5388 c-75 -37 -177 -136 -227 -220 -50 -85 -84 -191 -85 -268
-1 -95 25 -144 102 -192 l60 -37 -24 35 c-46 68 -43 176 7 301 75 186 258 353
387 353 l44 0 -56 30 c-75 40 -124 40 -208 -2z"/>
<path d="M6974 5399 c-3 -6 -2 -15 4 -21 6 -6 11 -2 15 11 5 22 -7 29 -19 10z"/>
<path d="M440 5376 c-60 -16 -112 -48 -179 -111 -219 -204 -287 -520 -133
-612 20 -12 53 -32 72 -45 l35 -22 -32 36 c-160 186 149 703 419 700 l39 -1
-68 35 c-74 37 -86 39 -153 20z"/>
<path d="M7158 5329 c-10 -6 -18 -20 -18 -32 0 -12 -9 -33 -20 -47 -13 -18
-16 -28 -8 -37 16 -20 28 -15 28 12 0 14 9 34 21 46 26 26 23 73 -3 58z"/>
<path d="M8610 5247 c-61 -32 -85 -81 -85 -174 0 -85 23 -126 71 -131 46 -5
69 28 69 94 0 62 1 62 94 68 l61 4 0 -33 c0 -19 -5 -46 -10 -61 -15 -37 -5
-42 14 -6 19 36 24 159 8 188 -6 12 -25 34 -43 48 -41 35 -117 36 -179 3z"/>
<path d="M484 5210 c-79 -7 -109 -22 -149 -74 -18 -24 -24 -42 -20 -60 3 -14
7 -37 10 -51 3 -14 21 -42 39 -63 19 -20 35 -46 37 -56 2 -11 10 -21 17 -24
21 -7 13 29 -13 60 -40 48 -31 66 13 26 l25 -23 -7 27 c-5 20 -2 28 11 31 17
4 17 5 1 6 -23 1 -25 51 -2 51 8 0 12 5 9 10 -4 6 6 10 24 10 19 0 43 11 65
30 l34 30 11 -30 c9 -28 8 -32 -14 -42 -14 -6 -25 -15 -25 -20 0 -4 -7 -8 -15
-8 -25 0 -65 -23 -65 -37 0 -9 7 -6 20 7 25 25 40 25 40 0 0 -13 -9 -22 -25
-26 -14 -3 -25 -10 -25 -15 0 -5 14 -3 30 6 18 9 30 23 30 35 0 22 16 27 23 8
3 -10 10 -10 31 2 20 10 26 20 22 35 -3 11 -12 47 -20 79 -8 33 -21 64 -28 71
-9 7 -37 9 -84 5z m109 -178 c-12 -8 -20 -9 -27 -1 -8 7 -5 15 8 25 16 11 22
11 28 1 4 -7 1 -17 -9 -25z"/>
<path d="M1903 5199 c-18 -3 -40 -13 -49 -20 -9 -8 -29 -19 -43 -26 -25 -11
-24 -11 20 -12 64 -1 156 -50 227 -120 159 -157 239 -396 174 -520 l-23 -44
25 16 c14 10 37 24 51 33 48 31 75 93 75 172 0 78 -16 136 -62 227 -95 186
-275 320 -395 294z"/>
<path d="M7196 5143 c-8 -8 -8 -1126 0 -1147 3 -9 10 -16 15 -16 12 0 12 1157
0 1164 -4 3 -11 3 -15 -1z"/>
<path d="M1887 5045 c-48 -16 -62 -28 -80 -68 -26 -57 -9 -207 23 -207 6 0 6
10 0 26 -6 14 -10 40 -10 59 l0 33 61 -4 c93 -6 95 -6 91 -62 -6 -87 59 -132
113 -78 29 29 42 114 25 174 -26 98 -133 159 -223 127z"/>
<path d="M8780 4952 c0 -4 4 -12 10 -18 5 -5 18 -34 28 -64 l19 -54 27 47 c27
45 27 49 12 72 -13 20 -25 25 -56 25 -22 0 -40 -4 -40 -8z"/>
<path d="M8558 4874 c-50 -38 -61 -66 -62 -174 -1 -42 1 -45 27 -48 15 -2 51
3 79 12 29 8 54 14 55 12 2 -2 6 -336 10 -742 6 -707 8 -753 33 -754 3 0 4
343 2 761 -2 700 -1 763 14 774 15 10 12 16 -26 46 -49 39 -70 75 -70 119 0
16 -3 30 -7 30 -5 0 -29 -16 -55 -36z"/>
<path d="M8730 4855 c0 -8 9 -19 20 -25 11 -6 23 -22 26 -35 3 -14 10 -23 14
-20 10 6 -17 77 -34 87 -17 12 -26 9 -26 -7z"/>
<path d="M557 4790 c-6 -23 37 -97 47 -82 8 13 -12 78 -28 91 -11 9 -15 7 -19
-9z"/>
<path d="M1795 4743 c-22 -6 -44 -31 -45 -51 0 -15 42 -82 53 -82 4 0 7 6 7
13 0 8 11 36 25 62 13 27 23 50 22 51 -8 7 -45 11 -62 7z"/>
<path d="M2015 4650 c-1 -35 -8 -48 -54 -94 l-53 -53 34 -21 c39 -24 130 -52
170 -52 28 0 28 0 28 69 0 94 -13 124 -68 161 -25 16 -48 30 -51 30 -3 0 -6
-18 -6 -40z"/>
<path d="M1884 4642 c-20 -13 -45 -75 -34 -86 7 -7 10 -3 10 11 0 12 12 30 28
41 18 14 24 24 17 31 -6 6 -15 7 -21 3z"/>
<path d="M6905 4034 c-39 -53 -73 -101 -77 -107 -4 -7 -25 -3 -64 11 -38 14
-62 18 -68 12 -6 -6 -6 -13 0 -18 12 -11 134 -56 138 -51 32 39 166 231 166
239 0 29 -32 0 -95 -86z"/>
<path d="M5713 3921 c-101 -35 -173 -110 -181 -190 -4 -42 -1 -51 17 -60 11
-7 21 -17 21 -24 0 -7 14 -41 31 -77 16 -35 33 -80 37 -99 12 -53 32 -51 32 3
0 43 2 46 26 46 25 0 26 -1 22 -58 -2 -52 1 -65 29 -110 36 -57 59 -66 131
-46 69 20 107 52 140 119 42 84 82 210 89 277 5 49 2 63 -21 102 -69 117 -228
168 -373 117z"/>
<path d="M7393 3433 l-59 -178 -107 -3 c-147 -4 -138 -22 11 -22 l117 0 59
178 c67 204 65 193 49 199 -7 3 -33 -61 -70 -174z"/>
<path d="M6270 3384 c-48 -27 -168 -55 -200 -47 -29 8 -56 -5 -42 -19 8 -8
-29 -30 -137 -83 -82 -40 -159 -76 -172 -80 -13 -4 -40 -21 -61 -38 l-37 -29
-30 21 c-33 24 -53 20 -98 -22 -24 -21 -63 -114 -63 -148 0 -11 -10 -23 -22
-28 -24 -9 -68 -62 -68 -81 0 -6 -4 -8 -10 -5 -5 3 -28 -4 -50 -15 -37 -19
-40 -23 -28 -38 12 -15 11 -16 -5 -3 -15 12 -24 10 -68 -18 -28 -17 -52 -31
-54 -31 -3 0 -50 -27 -105 -60 -55 -33 -105 -60 -111 -60 -5 0 -27 11 -47 25
-20 14 -45 25 -55 25 -35 0 -94 -71 -113 -135 -22 -73 -21 -79 19 -117 l32
-30 -37 29 c-21 15 -38 34 -38 41 0 17 -6 16 -69 -20 -31 -18 -68 -40 -83 -48
-284 -162 -456 -265 -452 -272 3 -4 -1 -5 -8 -3 -7 3 -35 -8 -61 -25 l-47 -30
-50 31 c-27 17 -55 27 -61 23 -7 -4 -9 -3 -6 3 8 13 -119 86 -135 77 -7 -4
-10 -4 -6 1 5 5 -7 17 -25 28 -28 17 -424 246 -544 314 -24 14 -48 21 -54 17
-7 -4 -9 -3 -6 3 9 14 -220 146 -235 137 -6 -4 -8 -3 -5 3 6 9 -94 73 -114 73
-14 0 -11 -104 4 -119 9 -11 9 -12 0 -7 -9 5 -11 2 -7 -8 3 -9 10 -16 15 -16
5 0 38 -18 74 -40 36 -22 68 -40 70 -40 3 0 23 -12 45 -26 22 -15 44 -23 51
-18 7 4 10 3 6 -3 -5 -8 161 -110 315 -193 15 -8 116 -66 223 -128 108 -62
201 -110 206 -106 5 3 8 1 7 -5 -3 -10 217 -141 238 -141 7 0 16 5 19 10 3 6
12 10 18 10 9 0 11 -133 8 -565 l-3 -565 31 17 c17 10 31 22 31 26 0 5 4 6 9
3 5 -3 13 0 19 7 14 17 21 957 7 957 -5 0 -4 4 3 8 8 6 12 34 11 92 -1 71 2
86 17 97 11 7 27 20 37 28 9 8 17 12 17 10 0 -3 9 -1 21 5 13 8 18 17 14 28
-5 13 -3 14 6 5 14 -14 42 -6 32 10 -3 5 -1 7 5 3 6 -3 47 15 91 41 67 39 78
49 68 62 -10 12 -9 13 9 3 16 -8 26 -7 47 7 15 10 24 21 20 26 -5 4 -3 5 4 1
11 -6 63 20 161 82 21 13 45 25 55 29 9 3 17 9 17 14 0 25 49 2 118 -54 83
-69 219 -161 251 -172 11 -3 36 2 58 14 42 21 209 147 232 174 22 27 31 20 31
-27 0 -65 -7 -76 -49 -76 -45 0 -88 -28 -117 -75 -21 -36 -21 -36 -100 -39
-150 -5 -250 -65 -286 -171 -34 -99 -33 -189 6 -588 20 -203 36 -380 36 -393
0 -23 -3 -24 -70 -24 -113 0 -150 -34 -98 -90 51 -55 311 -150 429 -158 110
-7 116 -1 118 100 0 46 -3 109 -8 141 -9 69 -23 69 150 7 129 -45 229 -59 268
-38 19 10 25 23 28 58 3 25 6 46 7 48 2 1 33 -11 70 -28 38 -16 71 -30 74 -30
4 0 38 20 75 45 38 25 71 45 73 45 2 0 4 -47 4 -105 l0 -105 -45 0 -45 0 0
-36 0 -37 45 6 c34 5 45 3 45 -7 0 -8 -7 -16 -15 -20 -21 -8 -19 -33 4 -46 25
-13 97 -13 122 0 20 11 27 40 9 40 -6 0 -10 71 -10 193 l0 194 248 160 c237
153 247 161 250 194 2 19 11 40 20 47 13 10 17 30 18 90 1 42 11 298 22 567
31 703 31 723 8 762 -37 61 -101 69 -187 23 -54 -28 -217 -124 -379 -223 -89
-54 -194 -147 -217 -190 -19 -37 -24 -143 -48 -887 -9 -277 -14 -535 -10 -572
l7 -67 -99 44 c-90 41 -100 49 -125 92 -16 27 -40 80 -54 118 -15 39 -32 82
-39 98 -8 15 -12 27 -10 27 2 0 33 -14 70 -30 37 -16 70 -30 74 -30 4 0 15
186 25 413 31 752 35 803 57 861 29 79 86 137 230 232 140 94 359 209 415 220
l36 7 -6 56 c-15 131 -35 174 -104 221 -14 9 -23 27 -24 48 -1 17 -2 32 -3 32
0 0 -20 -12 -45 -26z m10 -14 c0 -5 -5 -10 -11 -10 -5 0 -7 5 -4 10 3 6 8 10
11 10 2 0 4 -4 4 -10z m30 -10 c0 -5 -5 -10 -11 -10 -5 0 -7 5 -4 10 3 6 8 10
11 10 2 0 4 -4 4 -10z m-986 -565 c-4 -8 -8 -15 -10 -15 -2 0 -4 7 -4 15 0 8
4 15 10 15 5 0 7 -7 4 -15z m-24 -45 c-6 -11 -15 -20 -20 -20 -6 0 -2 9 7 20
10 11 19 20 21 20 1 0 -2 -9 -8 -20z m-30 -60 c-12 -16 -24 -30 -26 -30 -3 0
4 14 16 30 12 17 24 30 26 30 3 0 -4 -13 -16 -30z m-33 -54 c-3 -7 -33 -52
-67 -99 l-62 -87 -43 31 c-24 18 -54 43 -67 58 -19 21 -19 23 -2 8 11 -9 28
-17 37 -17 25 0 109 55 100 65 -5 4 -3 5 4 1 14 -8 76 28 66 38 -4 4 0 4 10 0
10 -3 17 -1 17 5 0 6 3 11 6 11 3 0 4 -6 1 -14z m-283 -57 c-3 -5 -10 -7 -15
-3 -5 3 -7 10 -3 15 3 5 10 7 15 3 5 -3 7 -10 3 -15z m270 -818 c153 -67 290
-121 305 -121 38 0 94 31 108 60 12 24 13 23 13 -18 0 -70 -27 -105 -87 -117
-18 -3 -33 -11 -33 -18 0 -8 -3 -9 -8 -1 -4 6 -16 13 -27 16 -11 3 -28 9 -37
13 -15 6 -18 2 -18 -19 0 -45 31 -167 41 -161 5 4 6 0 3 -8 -7 -19 35 -129 47
-122 5 4 7 0 4 -7 -7 -17 77 -165 112 -198 19 -18 24 -20 20 -7 -4 9 -2 17 3
17 5 0 8 -13 8 -30 l-1 -29 -81 42 c-61 32 -91 55 -124 97 -24 30 -57 70 -72
88 -16 17 -27 32 -25 32 2 0 -12 26 -31 57 -19 31 -34 61 -34 66 0 4 -4 6 -9
3 -5 -3 -8 0 -7 7 0 6 -8 32 -18 57 -18 43 -24 47 -128 94 -59 27 -107 51
-105 53 3 2 48 -17 102 -42 102 -47 121 -53 109 -33 -4 7 -17 46 -29 87 l-20
75 -135 58 c-74 33 -141 66 -147 75 -7 9 -13 30 -13 45 0 24 3 27 18 19 9 -5
142 -63 296 -130z m-233 -175 c-9 -18 -18 -29 -19 -24 -4 8 24 58 32 58 2 0
-4 -15 -13 -34z m-14 -83 c-3 -10 -5 -4 -5 12 0 17 2 24 5 18 2 -7 2 -21 0
-30z m550 5 c-3 -8 -6 -5 -6 6 -1 11 2 17 5 13 3 -3 4 -12 1 -19z m-522 -69
c-4 -5 1 -19 11 -30 15 -17 15 -19 2 -14 -25 10 -35 55 -12 55 3 0 2 -5 -1
-11z m112 -76 c0 -9 -6 -9 -21 -1 -30 15 -30 16 -3 14 13 0 24 -6 24 -13z m43
-23 c8 -5 11 -10 5 -10 -5 0 -17 5 -25 10 -8 5 -10 10 -5 10 6 0 17 -5 25 -10z
m65 -30 c3 -6 -1 -7 -9 -4 -18 7 -21 14 -7 14 6 0 13 -4 16 -10z m45 -4 c0 -2
-7 -7 -16 -10 -8 -3 -12 -2 -9 4 6 10 25 14 25 6z m45 -36 c3 -6 -1 -7 -9 -4
-18 7 -21 14 -7 14 6 0 13 -4 16 -10z m-10 -72 c33 -16 45 -28 45 -44 0 -18
-7 -23 -41 -29 -49 -8 -55 -3 -64 53 -8 49 -3 51 60 20z"/>
<path d="M7710 3223 c-15 -37 -44 -78 -79 -114 -52 -52 -61 -58 -126 -70 -111
-22 -331 -17 -438 9 -121 30 -221 74 -317 137 l-80 54 0 -29 c0 -23 10 -37 47
-65 67 -51 212 -120 318 -151 81 -24 107 -27 255 -28 215 -1 266 10 333 72 27
26 60 68 73 94 22 44 49 137 41 144 -2 2 -14 -22 -27 -53z"/>
<path d="M8151 2907 c-266 -144 -484 -266 -483 -272 0 -5 8 -11 16 -13 8 -2
238 117 511 264 462 249 521 286 455 283 -8 0 -233 -118 -499 -262z"/>
<path d="M2165 2890 c-38 -55 -75 -100 -81 -100 -6 0 -28 7 -47 15 -44 18 -70
19 -65 3 5 -14 117 -60 129 -53 14 9 159 213 159 224 0 30 -32 0 -95 -89z"/>
<path d="M4030 2797 c0 -33 4 -36 180 -139 135 -80 180 -102 180 -89 0 9 -21
32 -47 51 -138 98 -302 210 -307 210 -3 0 -6 -15 -6 -33z"/>
<path d="M7449 2578 c-41 -56 -77 -105 -80 -110 -3 -5 -29 0 -58 12 -61 24
-71 25 -71 6 0 -20 121 -66 138 -53 19 15 162 214 162 226 0 32 -25 9 -91 -81z"/>
<path d="M1330 2299 c-333 -203 -627 -383 -654 -400 -45 -28 -48 -31 -33 -46
15 -15 18 -15 34 -1 16 14 871 536 1175 717 123 73 153 102 106 100 -13 0
-295 -167 -628 -370z"/>
<path d="M2153 1635 l-58 -175 -108 0 c-83 0 -108 -3 -104 -12 3 -10 35 -13
118 -13 l114 0 62 180 c34 99 62 183 62 188 1 4 -5 7 -13 7 -10 0 -33 -57 -73
-175z"/>
<path d="M2491 1480 c-4 -38 -53 -120 -100 -166 -67 -67 -118 -79 -336 -78
-133 0 -174 4 -245 23 -99 26 -264 103 -333 156 l-48 37 3 -33 c4 -42 66 -92
186 -151 139 -68 233 -90 412 -95 173 -5 278 10 330 47 69 49 146 190 137 249
-2 14 -5 19 -6 11z"/>
<path d="M2865 699 c-335 -193 -616 -353 -623 -356 -13 -6 -18 -3 -318 181
-159 96 -196 115 -214 108 -20 -7 13 -30 244 -171 178 -109 273 -162 286 -158
41 11 1270 720 1270 733 0 8 -8 14 -17 13 -10 0 -292 -158 -628 -350z"/>
<path d="M1560 888 c-46 -62 -86 -117 -90 -121 -4 -5 -36 1 -69 14 -41 14 -65
19 -72 12 -6 -6 -5 -13 3 -20 23 -17 136 -55 147 -49 21 13 191 257 186 266
-12 20 -25 7 -105 -102z"/>
<path d="M5520 645 c-41 -7 -104 -21 -139 -30 -51 -15 -60 -20 -43 -26 34 -13
121 -13 237 0 61 7 151 11 200 9 81 -3 94 0 130 21 l40 25 -45 7 c-71 12 -298
8 -380 -6z"/>
<path d="M6280 650 c-73 -16 -77 -18 -49 -38 20 -14 51 -17 189 -17 144 -1
173 -4 224 -23 59 -22 106 -27 139 -14 13 6 -1 15 -53 35 -39 15 -97 34 -128
43 -69 19 -259 27 -322 14z"/>
<path d="M5997 569 c-83 -55 -196 -192 -272 -332 -21 -37 -35 -70 -32 -73 9
-9 44 18 62 49 55 93 267 327 297 327 11 0 118 -80 166 -124 19 -17 73 -87
120 -156 78 -113 112 -154 120 -145 7 7 -44 115 -85 179 -74 114 -271 306
-315 306 -8 0 -35 -14 -61 -31z"/>
</g>
</svg>
